<?xml version="1.0" encoding="UTF-8"?>
<svg xmlns="http://www.w3.org/2000/svg" version="1.1" viewBox="0 0 1000 1000">
  <defs>
    <style>
      .cls-1 {
        fill: #388e3c;
      }
    </style>
  </defs>
  <!-- Generator: Adobe Illustrator 28.6.0, SVG Export Plug-In . SVG Version: 1.2.0 Build 709)  -->
  <g>
    <g id="Ebene_1">
      <g>
        <path class="cls-1" d="M614.79,758.52c2.35,7.14,4.72,13.72,6.66,20.42,1.97,6.81,6.08,11.23,12.79,13.53,13.81,4.73,21.28,15.4,26.08,28.43.55,1.5,1.29,3.36.86,4.7-.63,1.94-1.9,4.5-3.52,5.09-1.88.69-4.56-.13-6.63-.96-1.1-.45-1.88-2.22-2.39-3.55-5.05-13.24-14.75-21.07-28.66-24.45-2.97,3.18-2.71,7.05-1.31,11.03.75,2.14,1.77,4.19,2.62,6.3,1.31,3.26.94,6.22-2.32,8.01-3.55,1.95-6.61.98-8.82-2.42-6.16-9.51-8.37-19.56-2.54-29.89,2.19-3.89,1.95-6.97.64-10.9-3.33-9.97-7.3-19.52-14.78-27.18-1.34-1.37-2.82-2.98-4.54-3.56-16.62-5.53-27.19-17.84-36.21-31.92-1.74-2.72-3.34-5.52-5.48-8.14.47,15.71-.33,31.74,11.78,44.41,2.36,2.47,4.73,4.95,7.3,7.19,11.44,9.94,16.56,22.66,16.59,37.59.01,5.85-.08,11.72-.49,17.56-.73,10.34,1.03,20.07,6.19,29.13,1.69,2.96,3.2,6.03,4.76,9.06,1.62,3.15,1.47,6.03-1.72,8.09-3.09,2-6.09,1.27-8.34-1.31-7.48-8.59-13.48-18.14-14.84-29.66-.95-8.04-1.09-16.24-.88-24.35.35-13.81-4.18-24.8-15.35-33.53-17.54-13.7-25.99-31.95-25.28-54.44.32-10.17-1.89-19.98-6.58-29.33-9.07,28.05-15.68,61.79-9.03,89.47,2.13,8.86,6.38,15.76,14.25,20.6,7.11,4.37,13.61,9.58,17.43,17.32,6.48,13.15,4.14,25.23-4.71,36.4-1.41,1.78-2.98,3.5-4.76,4.89-7.89,6.16-11.58,14.23-11.58,24.15,0,1.95-.1,3.91-.37,5.84-.46,3.32-2.28,5.28-5.83,5.31-3.47.03-5.57-1.63-6.03-5.06-1.88-14.18-.17-27.3,11.08-37.64,2.51-2.31,5.06-4.62,7.2-7.26,5.88-7.26,5.59-16.17-.58-23.15-1.39-1.57-2.89-3.15-4.61-4.33-11.53-7.91-22.21-16.53-26.44-30.89-.54.04-1.09.08-1.63.13-.57,2.27-1.9,4.65-1.58,6.78,1.66,11.2-3.61,18.7-12.29,24.62-1.74,1.19-3.37,2.56-5.06,3.83-9.3,6.95-11.68,16.35-9.68,27.3.53,2.87,1.26,5.71,1.63,8.6.43,3.34-1.09,5.77-4.38,6.62-3.22.83-5.84-.35-7.28-3.41-6.17-13.1-7.16-33.95,7.53-47.29,3.12-2.84,6.57-5.32,9.86-7.98,3.01-2.44,4.31-5.26,3.48-9.39-1.63-8.14-.72-16.33,4.8-22.66,9.24-10.57,10.89-22.55,8.39-35.57-3.02-15.73-6.35-31.4-10.41-47.05-4.65,6.72-6.44,14-7.18,21.52-.75,7.6-.64,15.29-1.69,22.84-2.05,14.81-9.56,26.78-20.53,36.69-1.93,1.75-3.82,3.55-5.83,5.2-8.22,6.76-11.92,15.56-12.1,26.08-.15,9.1.1,18.27-.89,27.29-1.24,11.22-6.46,21.04-13.16,30.04-.86,1.16-1.91,2.6-3.15,2.95-2.04.58-4.66,1.11-6.36.29-1.4-.68-2.61-3.42-2.48-5.15.19-2.63,1.21-5.39,2.55-7.72,6.6-11.5,9.57-23.68,8.3-36.98-.51-5.32-.19-10.73-.18-16.1.03-14.31,5.15-26.37,16.19-35.65,9.71-8.17,16.35-18.03,17.62-30.96.45-4.53.76-9.08,1.11-13.62.22-2.91.39-5.82-.08-9.2-1.24,2.04-2.55,4.04-3.69,6.14-9.12,16.78-21.26,29.65-39.8,36.94-8.29,3.25-15.78,10.77-19.02,19.99-1.5,4.26-.89,9.63-.05,14.28,2.22,12.35,2.82,24.34-4.74,35.23-6.79,9.79-16.89,14.55-28.07,17.02-1.91.42-5.37-1.54-6.51-3.39-1.6-2.59-.62-5.74,2.57-7.37,3.9-2,7.89-3.85,11.74-5.94,10.99-5.98,15.8-19.25,11.41-30.63-8.55,3.1-17.11,6.15-25.63,9.32-3.65,1.36-7.02,1.25-8.72-2.61-1.75-3.99.28-7.1,3.96-8.73,5.19-2.31,10.58-4.15,15.86-6.26,6.27-2.5,11.24-6.06,13.15-13.21,1.02-3.83,3.48-7.27,5.29-10.88-14.94-4.35-30.33-3.14-39.91,8.48-15.56,18.89-38.57,20.52-58.77,5.6-3.26-2.4-6.33-5.14-9.12-8.07-2.58-2.71-3.55-6.09-.42-9.09,2.88-2.76,6.1-2.53,9.27-.1,3.73,2.87,7.37,5.92,11.37,8.38,13.22,8.1,26.78,6.15,36.55-5.85,10.18-12.5,23.13-17.94,38.92-17.37,10.14.37,20.15-.15,29.79-3.76,15.75-5.91,26.71-16.96,34.12-31.79,1.56-3.13,2.94-6.35,3.62-10.14-.99.64-2.02,1.22-2.97,1.92-7.63,5.57-16.05,9.49-25.43,10.49-4.51.48-7.97,1.98-11.14,5.03-10.98,10.57-24.21,14.91-39.29,13.61-10.7-.92-21.22-3.51-29.52-10.36-7.44-6.14-13.81-4.43-20.91-.54-1.97,1.08-4.08,2.22-6.25,2.55-2.95.45-5.5-.45-5.71-4.23-.33-6.09-6.02-10.48-11.84-8.18-4.52,1.79-8.52,5.09-12.43,8.12-1.71,1.33-2.67,3.65-3.93,5.54-2.16,3.23-4.83,5.68-8.89,3.62-4.05-2.05-3.75-5.93-2.53-9.42,5.09-14.44,24.38-24.43,38.7-20.04,2.74.84,5.49,2.17,7.78,3.9,3.16,2.39,6.2,3.38,10.12,1.4-3-7.8-7.29-14.29-15.92-16.82-2.49-.73-5.2-1.28-7.28-2.7-1.76-1.2-4.22-4.09-3.78-5.24.9-2.34,3.3-4.4,5.56-5.78,1.22-.74,3.51-.1,5.19.37,12.15,3.36,22.44,8.78,27.86,21.38,9.35,21.74,43.09,25.47,57.58,15.46,1.81-1.25,3.41-2.81,5.26-4.34-3.51-2.79-6.88-4.88-9.47-7.69-2.34-2.55-4.51-5.68-5.44-8.94-.54-1.88.9-5.41,2.57-6.53,1.61-1.08,4.75-.35,7.05.22,1.44.36,2.64,1.83,3.86,2.9,9.43,8.21,20.04,8.38,31.14,4.44,10.9-3.88,24.32-17.12,27.24-26.88-9.2-1.12-18.31-2.54-27.47-3.28-37.94-3.03-75.86-6.67-113.86-8.52-40.46-1.97-81-2.17-121.5-3.13-3.09-.07-6.22.23-9.26-.19-1.47-.21-3.66-1.51-3.91-2.67-.33-1.53.37-4.02,1.55-5.05,18.02-15.71,36.24-31.19,54.33-46.83,26.71-23.08,53.39-46.21,80-69.41,3.14-2.74,6.35-4.09,10.56-3.9,20.79.92,41.74.33,62.34,2.74,42,4.9,78.98,20.94,107.49,54.65.3-1.68.63-2.65.63-3.63.04-36.13-.02-72.26.11-108.39.07-19.83-7.87-36.08-23.34-47.75-16.31-12.3-35.44-18.69-55.89-15.63-17.41,2.61-31.5,12.51-42.96,27.33,15.9-7.89,30.97-15.37,46.67-23.17-.29,15.46-7.02,26.65-18.1,35.38-11.62,9.16-25.52,12.64-39.8,14.78-7.33,1.1-14.74,1.69-22.99,2.61,2.37-12.91,6.07-24.02,12.28-34.23,15.3-25.14,38.26-36.03,67.11-36.01,15.68.01,30.77,2.42,44.65,10.19.5.28,1.05.46,2.72,1.19-4.5-6.58-8.23-12.2-12.18-17.66-.6-.83-2.14-1.32-3.27-1.38-19.59-1.06-32.99-13.24-35.47-33.52-1.03-8.46-.17-17.15-.17-25.73,15.94-.71,38.1,12.75,43.34,27.48,2.07,5.83,2.3,12.82,1.49,19.04-.75,5.82-.13,10.61,3.42,14.97,6.26,7.68,12.48,15.42,19.17,22.72,4.14,4.52,9.12,8.28,13.68,12.35.34-2.43.97-5.85,1.29-9.3,1.91-20.58,1.07-40.68-10.15-59.02-7.42-12.14-18.12-20.69-30.02-28.04-6.91-4.27-14.11-8.22-20.44-13.25-20.4-16.25-29.49-38.79-33.47-63.68-1.53-9.56-1.57-19.36-2.36-30.14,4.37.54,7.55.67,10.59,1.36,24.23,5.47,46.46,14.92,63.82,33.41,18.48,19.7,23.02,42.61,14.68,69.19-6.06-5.49-13.55-8.77-16.17-17.05-5.76-18.21-18.43-31.35-32.47-44.58,7.34,14.65,13.85,28.74,21.41,42.25,3.41,6.1,8.33,11.66,13.55,16.4,10.89,9.89,20.78,20.46,28.59,33.49,1.27-22.35,2.66-44.7,3.64-67.06.1-2.24-1.79-5.16-3.62-6.78-8.49-7.48-15.7-15.7-17.58-27.31-1.46-8.98-.73-17.9,2.21-26.51,4.6-13.45,12.13-25.12,22.22-35.53.7.48,1.44.79,1.92,1.33,12.11,13.99,21.97,29.16,23.78,48.17,1.34,14.02-3.03,26.26-13.88,35.31-6.55,5.46-8.93,11.41-8.24,19.85,1.63,19.9,2.48,39.87,4.15,60.03,7.42-15.9,20.65-26.47,32.62-38.35,6.71-6.67,11.18-15.81,15.83-24.28,5.29-9.65,9.67-19.8,14.71-30.29-2.95,2.85-5.71,5.41-8.34,8.09-9.89,10.09-18.16,21.23-22.94,34.72-2.95,8.31-10.27,12.6-16.8,18.2-8.39-25.04-4.41-47.19,12.62-66.79,17.55-20.21,40.75-30.1,66.16-35.85,2.22-.5,4.47-.84,6.72-1.17.59-.09,1.23.14,2.2.28.82,14.98-.56,29.64-4.53,43.98-5.68,20.53-15.13,38.85-32.9,51.65-6.19,4.45-12.92,8.16-19.47,12.1-28.69,17.23-41.99,42.49-39.66,75.9.45,6.49,1.17,12.96,1.79,19.43.04.46.33.89.95,2.49,9.48-10.71,18.56-20.96,27.61-31.23.64-.73,1.06-1.65,1.72-2.36,6.01-6.49,8.53-13.57,6.07-22.64-1.99-7.35.2-14.58,4.5-20.88,9.59-14.05,23.8-19.84,40.49-22.71.27,14.25,1.7,27.93-4.95,40.66-6.42,12.29-16.58,18.78-30.49,19.44-1.27.06-3,.62-3.68,1.55-3.87,5.33-7.48,10.85-10.46,15.24,9.85-2.67,20.24-6.57,30.97-8.16,20.68-3.06,41.18-1.61,59.2,10.39,19.79,13.18,29.98,32.81,34.73,55.61.12.59-.12,1.25-.28,2.65-5.06-.38-10.05-.62-15-1.16-12.99-1.42-25.79-3.75-37.54-9.86-14.63-7.61-24.71-18.83-27.48-35.63-.26-1.56-.19-3.17-.35-6.25,15.67,7.89,30.38,15.3,44.73,22.53-8.3-26.73-68.21-35.49-93.08-12.43,5.38,1.32,10.3,3.35,15.32,3.61,20.2,1.05,28.93,13.59,32.66,27.19,2.17,7.93,2.61,16.34,3.83,24.53.38,2.53-.8,4.06-3.23,3.42-9.69-2.54-20-3.96-28.82-8.32-14.97-7.41-20.56-24.63-15.81-42.17.46-1.69.59-4.64-.35-5.31-2.67-1.92-5.61-3.49-9.05-.21-13.1,12.44-21.06,27.11-21.08,45.54-.02,21-.07,41.99-.09,62.99-.01,16.57,0,33.15,1.16,50.84,1.3-1.81,2.44-3.75,3.92-5.4,22.59-25.26,51.65-38.81,84.02-46.42,27.69-6.52,55.85-6.12,84-5.76,2.11.03,4.5,1.69,6.25,3.19,29.53,25.29,58.98,50.67,88.45,76.03,14.06,12.09,28.12,24.18,42.19,36.27,1.23,1.06,2.73,1.95,3.61,3.25,1.25,1.85,2.03,4.01,3.02,6.04-2.04.95-4.03,2.5-6.14,2.71-4.52.44-9.1.21-13.66.19-55.85-.19-111.6,2.14-167.26,6.6-27.88,2.24-55.7,5.16-83.54,7.8-1.56.15-3.11.52-5.47.93,9.19,15.48,21.07,26.09,38.48,29.62,10.75,2.18,20.22.08,29.48-6.36,12.09-8.41,24.87-5.71,37.62-.19,6.14,2.66,12.84,4.54,19.46,5.33,3.54.42,7.98-1.49,11.1-3.66,8.51-5.9,20.83-6.7,29.34-1,3.17,2.12,5.75,4.79,3.76,8.9-1.9,3.93-5.65,3.81-8.9,2.39-7.21-3.14-13.1-2.02-19.26,3.06-6.7,5.52-15.2,4.93-24.02,4.02,2.14,4.57,4,8.77,6.13,12.83.37.71,1.86,1.1,2.86,1.16,8.27.5,15.33,3.75,21.7,8.95,8.57,7,17.93,7.7,27.8,2.88,1.17-.57,2.36-1.09,3.56-1.6,3.54-1.53,6.92-1.39,8.93,2.22,1.87,3.34.53,6.38-2.41,8.53-9.33,6.81-19.91,9.35-30.94,6.34-6.23-1.7-12.23-5.2-17.58-8.96-5.22-3.67-10.55-4.42-17.4-4.21.77,2.92,1.4,5.32,2.04,7.72.82,3.11.65,5.84-2.73,7.4-3.28,1.51-5.76.21-7.6-2.42-3.85-5.51-5.07-11.71-3.1-18.11,1.32-4.28.7-7.92-1.39-11.62-2.08-3.68-3.96-7.48-6.11-11.11-4.99-8.44-15.88-10.96-24.2-5.77-5.22,3.26-10.49,6.42-16.58,10.15,2.23,1.57,4.29,3.19,6.51,4.53,3.14,1.9,5.83,4.11,4.32,8.18-1.56,4.19-5.38,5.96-9.09,4.23-5.34-2.49-10.35-5.9-15.02-9.54-2.74-2.14-5.09-3.84-8.79-4.29-11.39-1.4-21.31-6.61-31.3-13.97.47,1.85.58,2.83.97,3.7,5.95,13.52,14.46,25.04,26.77,33.44,8.34,5.69,17.5,8.23,27.73,7.03,5.31-.62,10.74-.65,16.08-.36,9.44.51,17.82,3.85,24.08,11.22,5.9,6.94,13.02,11.38,22.02,13.41,14.2,3.2,20.53,13.76,23.55,26.97.76,3.33-.4,5.8-3.5,7.18-3.31,1.47-6.34.09-7.35-2.81-4.61-13.29-14.61-18.8-27.62-21.6-4.7-1.01-9.28-4.8-12.88-8.37-11.22-11.15-24.15-11.92-38.36-7.8ZM521.98,632.1c1.35-1.43,1.94-2.15,2.61-2.77,15.79-14.6,34.21-24.87,54.47-31.59,41.01-13.61,83.56-17.28,126.42-18.42,11.61-.31,23.23-.05,34.85-.05.25-.39.49-.78.74-1.16-6.09-3.35-11.92-8.98-18.3-9.68-54.83-6.07-108.4.27-160.51,18.51-2.69.94-5.33,2.05-7.99,3.07,44.57-33.75,96.55-40.33,150.32-41.25-5.72-4.63-11.51-8.75-17.41-12.71-1.01-.68-2.43-1.02-3.67-1.04-24.58-.5-49.13-.7-73.3,5.11-23.51,5.64-45.75,13.93-64.33,30.02-14.68,12.71-24.58,28.92-33.06,46.07-4.5,9.11-8.64,18.4-13.07,27.88-4.56-9.62-8.9-18.7-13.19-27.81-18.14-38.59-47.68-63.17-89.04-74.21-27.63-7.38-55.6-7.78-83.78-7-.94.03-2.03.19-2.78.68-6.36,4.16-12.65,8.42-19.96,13.31,28.43.14,55.27,1.99,81.81,7.55,25.41,5.33,65,22.95,73.04,33.16-.57-.07-1.07-.02-1.48-.19-25.72-10-52.33-16.63-79.62-20.51-26.87-3.82-53.85-2.9-80.87-1.99-10.8.37-18.53,5.44-27.42,12.21,2.85,0,4.54.02,6.22,0,40.72-.44,81.29,1.13,121.47,8.57,29.1,5.39,56.73,14.33,80.67,32.43,4.75,3.59,9.17,7.61,14.6,12.16-11.21-4.47-21.03-8.8-31.13-12.35-41.77-14.71-85.06-21.52-129.12-23.26-24.68-.97-49.44-.04-74.16-.34-5.53-.07-8.77,2.86-13.13,6.57,2.64.21,4.36.36,6.07.47,11.2.77,22.43,1.2,33.58,2.36,41.23,4.29,82.43,8.91,123.66,13.24,36.38,3.82,71.09,12.42,101.18,34.55,2.87,2.11,4.94,1.58,7.87-.04,11.94-6.56,23.72-13.62,36.23-18.89,24.36-10.24,50.51-13.25,76.47-16.57,21.12-2.71,42.28-5.19,63.47-7.31,27.17-2.71,54.39-4.94,81.59-7.39,1.13-.1,2.25-.32,3.38-.48l.36-1.54c-3.55-1.63-7.04-4.51-10.67-4.69-38.89-1.88-77.73-1.48-116.41,3.67-30.87,4.1-61.13,10.78-90.43,21.45-8.48,3.09-16.83,6.53-26.21,10.19ZM204.58,620.97c37.55,2.98,74.84,5.52,112.04,9,37.31,3.49,74.54,7.93,111.8,11.95-7.84-1.6-15.73-3.14-23.67-4.29-26.85-3.9-53.69-7.84-80.59-11.42-33.97-4.52-68.03-8.47-101.97-13.2-8.35-1.16-12.7,3.55-17.62,7.97ZM795.28,621.56c-5.85-3.73-9.25-9.48-15.55-8.94-19.91,1.7-39.86,3.41-59.64,6.18-32.66,4.57-65.21,9.97-97.8,15.02-18.1,2.81-36.2,5.64-54.3,8.46,75.03-9.31,150.11-17.66,227.28-20.72ZM499.86,267.47c5.78-14.23,2.13-27.72-.28-41.22-2.25,13.51-6.78,27.03.28,41.22ZM575.41,450.72c-3.96-10.47-9.99-17.57-17.18-23.75-.83-.72-2.49-.47-3.77-.66-.08,1.31-.59,2.81-.13,3.88.62,1.42,1.91,2.6,3.08,3.71,5.64,5.34,11.34,10.61,18,16.82ZM422.48,345.16c5.14,7.9,5.2,18.96,14.4,24.4.5-11.28-6.71-17.97-14.4-24.4ZM576.07,346.34c-6.93,4.64-12.04,10.57-14.52,18.35-.4,1.27.31,2.9.51,4.36,1.37-.62,2.91-1.02,4.07-1.92.97-.75,1.68-1.99,2.2-3.15,2.63-5.86,5.17-11.76,7.73-17.64Z"/>
        <path class="cls-1" d="M181.64,580.94c-40.12-95.43-32.04-253.53,92.58-365.71,124.82-112.36,311-118.3,442.16-6.54,130.19,110.92,141.49,269.81,100.24,372.08-5.11-4.63-10.12-8.87-14.67-13.56-.89-.91-.31-3.61.09-5.36,3.79-16.62,8.43-33.08,11.39-49.85,4.38-24.8,4.28-49.91,1.79-74.92-4.94-49.54-20.17-95.75-47.23-137.61-47.49-73.45-113.33-122.64-198.77-142.28-102.3-23.52-194.48.75-274.51,67.78-58.74,49.21-94.84,112.7-108.82,188.33-9.23,49.94-5.76,99.09,9.98,147.35,1.38,4.24,1.39,7.22-2.43,10.08-3.98,2.99-7.57,6.51-11.81,10.23Z"/>
        <path class="cls-1" d="M374.31,372.48c-13.2-.4-19.9,8.39-27.28,17.17-6.65,7.91-16.71,10.56-26.77,11.29-18.3,1.32-35.84-2.55-52.9-8.95-.6-.23-1.17-.56-1.7-.92-.25-.17-.39-.5-.86-1.13,12.1-18.78,27.22-34.21,49.24-41.13,14.53-4.57,26.84.76,37.41,10.66,9.59,8.98,9.82,9.31,22.85,13.02ZM306.03,374.12c15.24-1.51,29.69-2.95,44.14-4.39-9.17-8.91-28.89-5.4-44.14,4.39Z"/>
        <path class="cls-1" d="M734.4,391.38c-10.26,2.69-19.5,5.62-28.95,7.48-12.93,2.54-26.01,4.18-38.99-.28-9.64-3.31-16.94-9.18-21.91-18.21-1.12-2.03-3.77-3.78-6.07-4.47-4.86-1.47-9.96-2.15-14.96-3.93,1.71-.27,3.44-.45,5.13-.83,6.61-1.46,12.43-4.08,17.15-9.36,13.78-15.44,30.27-18.38,48.73-9.19,16.96,8.44,28.96,21.93,39.87,38.8ZM647.49,369.69c15.41,1.43,29.98,2.79,45.03,4.19-15.12-9.56-35.93-13.27-45.03-4.19Z"/>
        <path class="cls-1" d="M675.92,299.83c-3.66,25.48-15.23,44.96-37.65,57.18-2.94,1.6-6.48,3.17-9.66,3.03-8.4-.38-15.63,2.18-21.98,6.82,0-7.62.29-15.12-.06-22.59-.76-16.2,6.61-28.11,19.99-35.93,14.96-8.73,31.63-10.01,49.35-8.51ZM641.27,324.21c-11.98,5.18-26.14,19.04-25.51,28.1,2.19-.91,4.72-1.16,5.84-2.55,6.55-8.13,12.78-16.52,19.67-25.55Z"/>
        <path class="cls-1" d="M323.28,299.73c15.87-1.15,30.89-.34,44.77,6.77,15.82,8.1,24.39,20.79,23.65,39.16-.28,7.01.27,14.04.43,20.79-1.28-.81-3.3-2.39-5.56-3.45-2.44-1.15-5.18-2.72-7.67-2.53-14.88,1.12-25.87-6.16-35.63-16.02-12.08-12.2-18.85-26.9-20-44.72ZM381.57,352.49c.41-10.27-13.84-25.46-24.05-28.27,6.01,7.93,12.07,16.14,18.4,24.13,1.4,1.76,3.74,2.78,5.65,4.14Z"/>
        <path class="cls-1" d="M405.51,471.51c-4.3-15.39,4.71-40.84,17.96-48.99,3.96-2.44,8.98-3.3,13.62-4.45,5.6-1.39,11.32-2.31,17.21-3.47-1.03.96-2.06,1.92-3.02,2.82,10.33,36.52-14.75,53.76-45.78,54.1ZM425.36,449.23c4.94-4.54,9.93-9.03,14.8-13.66,1.75-1.66,3.39-3.51,4.68-5.54.51-.8.23-2.48-.3-3.42-.26-.46-2.25-.59-2.87-.11-7.65,5.89-13.38,13.24-16.31,22.73Z"/>
        <path class="cls-1" d="M339,247.23c17.24-.05,33.3,1.5,44.95,15.86,5.21,6.43,6.61,13.92,6.34,21.97-.19,5.74-.04,11.49-.04,18.02-4.89-7.81-13.39-5.05-20.29-7.4-5.66-1.92-11.5-4.91-15.78-8.97-10.98-10.41-14.16-24.29-15.17-39.48ZM381.3,290.05c.57-8.3-7.84-18.12-18.85-22.94,6.93,7.46,9.26,17.48,18.85,22.94Z"/>
        <path class="cls-1" d="M608.61,303.49c0-6.72.42-12.18-.08-17.56-1.39-14.81,5.54-25.12,17.64-32.15,10.09-5.86,21.51-6.56,32.97-6.6-.23,25.2-12.59,45.41-31.38,49.08-.16.03-.31.12-.47.13-6.84.59-14.12-.2-18.68,7.09ZM635.36,268.05c-6.87,3.47-12.92,7.96-16.6,14.81-.83,1.55-.47,3.73-.65,5.63,1.81-.92,4.24-1.37,5.31-2.83,4.21-5.7,8-11.71,11.94-17.61Z"/>
      </g>
    </g>
  </g>
</svg>